<?xml version="1.0" encoding="UTF-8"?>
<svg xmlns="http://www.w3.org/2000/svg" xmlns:xlink="http://www.w3.org/1999/xlink" width="889pt" height="445pt" viewBox="0 0 889 445" version="1.1">
<g id="surface1">
<path style=" stroke:none;fill-rule:evenodd;fill:rgb(81.25%,7.835388%,25.097656%);fill-opacity:1;" d="M 94.835938 41.554688 L 137.867188 0.648438 L 137.867188 266.898438 L 137.992188 266.945313 C 134.671875 321.757813 14.105469 331.496094 1.019531 268.253906 L 0.972656 268.269531 L 0.972656 268.042969 C 0.75 266.9375 0.550781 265.816406 0.394531 264.671875 L 0.972656 264.496094 L 0.972656 209.167969 L 44.601563 175.640625 L 44.601563 251.738281 C 48.910156 284.476563 93.582031 282.644531 94.777344 250.835938 L 94.835938 250.855469 Z M 888.09375 230.480469 L 888.089844 230.464844 L 888.089844 230.234375 L 888.054688 230.234375 C 882.574219 191.8125 858.382813 174.640625 818.472656 173.003906 C 779.585938 174.667969 756.476563 197.890625 754.460938 244.6875 C 755.867188 332.6875 862.394531 324.660156 885.140625 280.085938 L 852.988281 271.234375 C 839.867188 303.585938 779.859375 289.109375 785.730469 242.328125 C 785.351563 214.417969 797.273438 197.585938 825.847656 199.847656 C 844.167969 199.597656 856.296875 210.925781 856.265625 230.234375 L 803.722656 230.234375 L 788.679688 253.242188 L 888.089844 253.242188 L 888.089844 230.480469 Z M 733.832031 230.480469 L 733.828125 230.464844 L 733.828125 230.234375 L 733.796875 230.234375 C 728.316406 191.8125 704.121094 174.640625 664.214844 173.003906 C 625.324219 174.667969 602.214844 197.890625 600.199219 244.6875 C 601.605469 332.6875 708.136719 324.660156 730.882813 280.085938 L 698.726563 271.234375 C 685.609375 303.585938 625.601563 289.109375 631.46875 242.328125 C 631.09375 214.417969 643.011719 197.585938 671.589844 199.847656 C 689.910156 199.597656 702.039063 210.925781 702.007813 230.234375 L 649.464844 230.234375 L 634.421875 253.242188 L 733.828125 253.242188 L 733.828125 230.480469 Z M 540.402344 112.328125 L 579.574219 71.421875 L 579.574219 305.449219 L 540.402344 305.449219 Z M 480.601563 210.964844 L 519.773438 170.0625 L 519.773438 305.449219 L 480.601563 305.449219 Z M 350.097656 112.335938 L 310.925781 71.429688 L 310.925781 305.449219 L 350.097656 305.449219 L 350.097656 293.921875 C 361.765625 305.890625 377.554688 313.238281 394.933594 313.238281 C 430.855469 313.238281 459.976563 281.855469 459.976563 243.148438 C 459.976563 204.4375 430.855469 173.058594 394.933594 173.058594 C 377.554688 173.058594 361.765625 180.40625 350.097656 192.375 Z M 384.722656 204.472656 C 406.078125 204.472656 423.394531 221.789063 423.394531 243.148438 C 423.394531 264.507813 406.078125 281.824219 384.722656 281.824219 C 363.363281 281.824219 346.046875 264.507813 346.046875 243.148438 C 346.046875 221.789063 363.363281 204.472656 384.722656 204.472656 Z M 158.617188 206.09375 L 197.789063 175.640625 L 197.789063 254.710938 L 197.949219 254.625 C 199.074219 283.183594 240.378906 284.917969 251.128906 258.566406 L 251.128906 205.03125 L 290.296875 174.578125 L 290.296875 305.449219 L 251.128906 305.449219 L 251.128906 290.625 C 210.070313 321.394531 164.578125 310.378906 158.734375 276.265625 L 158.617188 276.320313 L 158.617188 206.09375 "/>
<path style="fill:none;stroke-width:5.0003;stroke-linecap:butt;stroke-linejoin:miter;stroke:rgb(81.25%,7.835388%,25.097656%);stroke-opacity:1;stroke-miterlimit:2.61313;" d="M 948.359375 4034.453125 L 1378.671875 4443.515625 L 1378.671875 1781.015625 L 1379.921875 1780.546875 C 1346.71875 1232.421875 141.054688 1135.039063 10.195313 1767.460938 L 9.726563 1767.304688 L 9.726563 1769.570313 C 7.5 1780.625 5.507813 1791.835938 3.945313 1803.28125 L 9.726563 1805.039063 L 9.726563 2358.320313 L 446.015625 2693.59375 L 446.015625 1932.617188 C 489.101563 1605.234375 935.820313 1623.554688 947.773438 1941.640625 L 948.359375 1941.445313 Z M 8880.9375 2145.195313 L 8880.898438 2145.351563 L 8880.898438 2147.65625 L 8880.546875 2147.65625 C 8825.742188 2531.875 8583.828125 2703.59375 8184.726563 2719.960938 C 7795.859375 2703.320313 7564.765625 2471.09375 7544.609375 2003.125 C 7558.671875 1123.125 8623.945313 1203.398438 8851.40625 1649.140625 L 8529.882813 1737.65625 C 8398.671875 1414.140625 7798.59375 1558.90625 7857.304688 2026.71875 C 7853.515625 2305.820313 7972.734375 2474.140625 8258.476563 2451.523438 C 8441.679688 2454.023438 8562.96875 2340.742188 8562.65625 2147.65625 L 8037.226563 2147.65625 L 7886.796875 1917.578125 L 8880.898438 1917.578125 L 8880.898438 2145.195313 Z M 7338.320313 2145.195313 L 7338.28125 2145.351563 L 7338.28125 2147.65625 L 7337.96875 2147.65625 C 7283.164063 2531.875 7041.210938 2703.59375 6642.148438 2719.960938 C 6253.242188 2703.320313 6022.148438 2471.09375 6001.992188 2003.125 C 6016.054688 1123.125 7081.367188 1203.398438 7308.828125 1649.140625 L 6987.265625 1737.65625 C 6856.09375 1414.140625 6256.015625 1558.90625 6314.6875 2026.71875 C 6310.9375 2305.820313 6430.117188 2474.140625 6715.898438 2451.523438 C 6899.101563 2454.023438 7020.390625 2340.742188 7020.078125 2147.65625 L 6494.648438 2147.65625 L 6344.21875 1917.578125 L 7338.28125 1917.578125 L 7338.28125 2145.195313 Z M 5404.023438 3326.71875 L 5795.742188 3735.78125 L 5795.742188 1395.507813 L 5404.023438 1395.507813 Z M 4806.015625 2340.351563 L 5197.734375 2749.375 L 5197.734375 1395.507813 L 4806.015625 1395.507813 Z M 3500.976563 3326.640625 L 3109.257813 3735.703125 L 3109.257813 1395.507813 L 3500.976563 1395.507813 L 3500.976563 1510.78125 C 3617.65625 1391.09375 3775.546875 1317.617188 3949.335938 1317.617188 C 4308.554688 1317.617188 4599.765625 1631.445313 4599.765625 2018.515625 C 4599.765625 2405.625 4308.554688 2719.414063 3949.335938 2719.414063 C 3775.546875 2719.414063 3617.65625 2645.9375 3500.976563 2526.25 Z M 3847.226563 2405.273438 C 4060.78125 2405.273438 4233.945313 2232.109375 4233.945313 2018.515625 C 4233.945313 1804.921875 4060.78125 1631.757813 3847.226563 1631.757813 C 3633.632813 1631.757813 3460.46875 1804.921875 3460.46875 2018.515625 C 3460.46875 2232.109375 3633.632813 2405.273438 3847.226563 2405.273438 Z M 1586.171875 2389.0625 L 1977.890625 2693.59375 L 1977.890625 1902.890625 L 1979.492188 1903.75 C 1990.742188 1618.164063 2403.789063 1600.820313 2511.289063 1864.335938 L 2511.289063 2399.6875 L 2902.96875 2704.21875 L 2902.96875 1395.507813 L 2511.289063 1395.507813 L 2511.289063 1543.75 C 2100.703125 1236.054688 1645.78125 1346.210938 1587.34375 1687.34375 L 1586.171875 1686.796875 Z M 1586.171875 2389.0625 " transform="matrix(0.1,0,0,-0.1,0,445)"/>
<path style=" stroke:none;fill-rule:nonzero;fill:rgb(81.25%,7.835388%,25.097656%);fill-opacity:1;" d="M 211.3125 371.457031 L 219.644531 371.457031 L 219.644531 441.378906 L 211.3125 441.378906 L 211.3125 371.457031 "/>
<path style=" stroke:none;fill-rule:nonzero;fill:rgb(81.25%,7.835388%,25.097656%);fill-opacity:1;" d="M 231.433594 368.027344 L 281.601563 423.296875 L 281.601563 371.457031 L 290.109375 371.457031 L 290.109375 444.253906 L 239.675781 389.167969 L 239.675781 441.378906 L 231.433594 441.378906 L 231.433594 368.027344 "/>
<path style=" stroke:none;fill-rule:nonzero;fill:rgb(81.25%,7.835388%,25.097656%);fill-opacity:1;" d="M 331.589844 384.71875 C 329.109375 380.207031 325.472656 377.949219 320.6875 377.949219 C 317.613281 377.949219 315 378.96875 312.84375 381.007813 C 310.6875 383.050781 309.609375 385.242188 309.609375 387.59375 C 309.429688 391.488281 311.617188 394.578125 316.167969 396.867188 C 318 397.609375 320.449219 398.613281 323.523438 399.878906 C 326.597656 401.148438 329.566406 402.816406 332.433594 404.886719 C 335.296875 406.960938 337.320313 409.417969 338.503906 412.261719 C 339.683594 415.226563 340.277344 418.226563 340.277344 421.253906 C 340.277344 427.316406 338.207031 432.382813 334.070313 436.464844 C 329.933594 440.542969 324.972656 442.675781 319.179688 442.863281 C 313.980469 442.925781 309.355469 441.148438 305.308594 437.53125 C 301.261719 433.914063 298.941406 429.167969 298.351563 423.296875 L 306.683594 421.441406 C 306.742188 425.769531 308.085938 429.0625 310.714844 431.316406 C 313.347656 433.574219 316.316406 434.703125 319.625 434.703125 C 322.578125 434.703125 325.238281 433.683594 327.601563 431.640625 C 329.964844 429.601563 331.351563 426.757813 331.765625 423.109375 C 332.417969 418.660156 331.546875 415.320313 329.152344 413.09375 C 326.757813 410.871094 323.199219 408.828125 318.472656 406.972656 C 314.808594 405.367188 311.78125 403.804688 309.386719 402.292969 C 306.992188 400.777344 305.027344 398.78125 303.492188 396.308594 C 301.957031 393.835938 301.21875 390.871094 301.277344 387.40625 C 301.277344 383.019531 303.078125 379 306.683594 375.351563 C 310.289063 371.703125 315.074219 369.882813 321.042969 369.882813 C 328.605469 369.882813 334.308594 373.433594 338.148438 380.546875 L 331.589844 384.71875 "/>
<path style=" stroke:none;fill-rule:nonzero;fill:rgb(81.25%,7.835388%,25.097656%);fill-opacity:1;" d="M 388.9375 371.457031 L 397.179688 371.457031 L 397.179688 415.878906 C 397.179688 421.253906 396.144531 425.984375 394.078125 430.066406 C 392.007813 434.144531 389.097656 437.3125 385.347656 439.570313 C 381.59375 441.828125 377.355469 442.925781 372.628906 442.863281 C 367.074219 442.800781 362.480469 441.441406 358.84375 438.78125 C 355.210938 436.125 352.535156 432.753906 350.824219 428.675781 C 349.109375 424.59375 348.253906 420.484375 348.253906 416.339844 L 348.253906 371.457031 L 356.496094 371.457031 L 356.496094 414.207031 C 356.496094 419.648438 357.734375 424.425781 360.21875 428.535156 C 362.699219 432.648438 366.835938 434.703125 372.628906 434.703125 C 378.183594 434.703125 382.289063 432.832031 384.945313 429.09375 C 387.605469 425.351563 388.9375 420.144531 388.9375 413.464844 L 388.9375 371.457031 "/>
<path style=" stroke:none;fill-rule:nonzero;fill:rgb(81.25%,7.835388%,25.097656%);fill-opacity:1;" d="M 408.789063 371.457031 L 420.753906 371.457031 C 428.613281 371.457031 434.199219 372.726563 437.507813 375.257813 C 442.351563 378.90625 444.953125 384.160156 445.308594 391.023438 C 445.484375 396.21875 444.035156 400.667969 440.964844 404.378906 C 437.890625 408.085938 433.992188 410.28125 429.265625 410.960938 L 450.359375 441.378906 L 440.34375 441.378906 L 420.578125 411.890625 L 417.121094 411.890625 L 417.121094 441.378906 L 408.789063 441.378906 Z M 417.121094 379.246094 L 417.121094 404.65625 C 424.214844 404.65625 429.367188 403.761719 432.589844 401.96875 C 435.808594 400.175781 437.449219 396.710938 437.507813 391.582031 C 437.507813 387.996094 436.179688 385.042969 433.519531 382.722656 C 430.859375 380.40625 426.308594 379.246094 419.871094 379.246094 L 417.121094 379.246094 "/>
<path style=" stroke:none;fill-rule:nonzero;fill:rgb(81.25%,7.835388%,25.097656%);fill-opacity:1;" d="M 481.734375 368.398438 L 513.734375 441.378906 L 504.691406 441.378906 L 497.070313 423.851563 L 466.492188 423.851563 L 458.867188 441.378906 L 449.828125 441.378906 Z M 481.734375 387.59375 L 469.949219 415.878906 L 493.613281 415.878906 Z M 481.734375 387.59375 "/>
<path style=" stroke:none;fill-rule:nonzero;fill:rgb(81.25%,7.835388%,25.097656%);fill-opacity:1;" d="M 518.429688 368.027344 L 568.597656 423.296875 L 568.597656 371.457031 L 577.105469 371.457031 L 577.105469 444.253906 L 526.675781 389.167969 L 526.675781 441.378906 L 518.429688 441.378906 L 518.429688 368.027344 "/>
<path style=" stroke:none;fill-rule:nonzero;fill:rgb(81.25%,7.835388%,25.097656%);fill-opacity:1;" d="M 638 427.65625 L 638 437.949219 C 632.5625 441.226563 626.742188 442.863281 620.539063 442.863281 C 614.214844 442.863281 608.308594 441.179688 602.8125 437.808594 C 597.316406 434.441406 592.972656 429.832031 589.78125 423.992188 C 586.589844 418.148438 585.171875 411.980469 585.527344 405.492188 C 586 397.144531 588.246094 390.296875 592.265625 384.949219 C 596.28125 379.601563 600.90625 375.769531 606.136719 373.453125 C 611.363281 371.132813 616.226563 369.972656 620.714844 369.972656 C 627.097656 369.972656 632.859375 371.488281 638 374.519531 L 638 384.71875 C 632.859375 380.082031 626.921875 377.761719 620.183594 377.761719 C 615.515625 377.761719 611.15625 379.0625 607.109375 381.65625 C 603.0625 384.253906 599.84375 387.746094 597.449219 392.136719 C 595.054688 396.527344 593.859375 400.976563 593.859375 405.492188 C 593.859375 411.179688 595.054688 416.234375 597.449219 420.652344 C 599.84375 425.074219 603.046875 428.519531 607.066406 430.992188 C 611.085938 433.464844 615.457031 434.765625 620.183594 434.886719 C 626.386719 435.074219 632.324219 432.660156 638 427.65625 "/>
<path style=" stroke:none;fill-rule:nonzero;fill:rgb(81.25%,7.835388%,25.097656%);fill-opacity:1;" d="M 647.304688 371.457031 L 683.203125 371.457031 L 683.203125 379.433594 L 655.636719 379.433594 L 655.636719 399 L 682.492188 399 L 682.492188 406.972656 L 655.636719 406.972656 L 655.636719 433.402344 L 683.203125 433.402344 L 683.203125 441.378906 L 647.304688 441.378906 L 647.304688 371.457031 "/>
</g>
</svg>
