<?xml version="1.0" encoding="utf-8"?>
<!-- Generator: Adobe Illustrator 23.1.0, SVG Export Plug-In . SVG Version: 6.00 Build 0)  -->
<svg version="1.1" id="Layer_1" xmlns="http://www.w3.org/2000/svg" xmlns:xlink="http://www.w3.org/1999/xlink" x="0px" y="0px"
	 viewBox="0 0 430.25 192.86" style="enable-background:new 0 0 430.25 192.86;" xml:space="preserve">
<style type="text/css">
	.st0{fill:#0AAF92;}
	.st1{fill:#213467;}
</style>
<g>
	<g>
		<path class="st0" d="M9.13,62.43c-0.39,0.2-0.74,0.46-1.06,0.76l-0.58,0.55c-0.65,0.62-1.02,1.47-1.02,2.37v42.84
			c0,1.55,0.81,2.98,2.14,3.77L45,134.5c1.31,0.82,2.96,0.86,4.3,0.09l25.94-14.83c0.54-0.31,0.56-1.09,0.02-1.42l-13.84-8.43
			c-0.61-0.37-1.37-0.38-1.99-0.03l-10.45,5.98c-1.15,0.66-2.57,0.65-3.71-0.03l-19.34-11.43c-1.28-0.76-2.07-2.13-2.08-3.62
			l-0.23-31.15l7.79,4.68L10.53,61.73L9.13,62.43z"/>
		<path class="st1" d="M67.8,54.46c-0.9-0.45-1.96-0.43-2.84,0.05l-16.48,9c-1.05,0.57-2.32,0.56-3.36-0.02l-15.78-8.91
			c-1.38-0.73-3.03-0.75-4.43-0.05l-14.39,7.21l20.89,12.58l12.68,7.62c1.87,1.12,4.2,1.12,6.07,0l20.12-12.05l0,0.04l13.59-8.03
			L67.8,54.46z"/>
		<path class="st0" d="M86.4,63.05l-2.53-1.17l-13.59,8.03l0.24,26.07c0.01,0.86,0.47,1.65,1.21,2.09l15.63,9.16
			c0.36,0.21,0.82-0.05,0.82-0.47V65.95C88.19,64.72,87.5,63.6,86.4,63.05z"/>
	</g>
	<g>
		<g>
			<path class="st1" d="M137.05,86.19l13.71-23.83h9.29v44.82h-9.29V78.35l-10.79,19.82h-5.85L123.4,78.35v28.82h-9.36V62.35h9.29
				L137.05,86.19z"/>
			<path class="st1" d="M212.68,107.17h-10.14l-3.64-9.39h-19.56l-3.57,9.39h-10.14l18.32-44.82h10.33L212.68,107.17z M189.16,72.2
				l-6.76,17.16h13.45L189.16,72.2z"/>
			<path class="st1" d="M235.81,62.35c14.3,0,22.55,9,22.55,22.41v0.06c0,13.34-8.25,22.34-22.55,22.34H218.2V62.35H235.81z
				 M227.82,98.17h7.99c8.25,0,13-5.38,13-13.34v-0.06c0-8.03-4.74-13.41-13-13.41h-7.99V98.17z"/>
			<path class="st1" d="M265.11,107.17V62.35h9.62v44.82H265.11z"/>
			<path class="st1" d="M312.09,74.79c-2.99-3.24-6.37-4.73-11.31-4.73h-0.07c-5.2,0-8.38,1.62-8.38,4.4c0,1.94,1.17,3.43,6.11,4.47
				l8.71,1.94c8.84,1.88,11.18,7.9,11.18,13.86c0,8.35-7.41,13.21-17.74,13.21h-0.07c-9.55,0-16.31-3.3-19.75-9.71l7.86-5.7
				c2.92,5.25,6.95,6.93,12.09,6.93h0.07c5.07,0,7.8-1.88,7.8-4.99c0-2.66-1.75-4.27-5.52-5.18l-10.01-2.46
				c-7.47-1.81-10.4-6.48-10.4-11.98c0-8.74,7.47-13.28,18.45-13.28h0.07c7.08,0,12.8,2.14,16.5,6.15L312.09,74.79z"/>
			<path class="st1" d="M345.49,61.58c14.36,0,23.13,9.59,23.13,23.12v0.06c0,13.6-8.77,23.19-23.13,23.19h-0.07
				c-14.36,0-23.13-9.59-23.13-23.19V84.7c0-13.54,8.77-23.12,23.13-23.12H345.49z M345.49,99.01c8.38,0,13.52-5.89,13.52-14.25
				V84.7c0-8.29-5.13-14.18-13.52-14.18h-0.07c-8.38,0-13.52,5.89-13.52,14.18v0.06c0,8.35,5.13,14.25,13.52,14.25H345.49z"/>
			<path class="st1" d="M405.65,62.35h9.36v44.82h-8.51l-21.77-28.43v28.43h-9.36V62.35h8.51l21.77,28.5V62.35z"/>
		</g>
	</g>
</g>
</svg>
